<?xml version="1.0" encoding="utf-8"?>
<!-- Generator: Adobe Illustrator 27.0.1, SVG Export Plug-In . SVG Version: 6.00 Build 0)  -->
<svg version="1.1" id="Layer_1" xmlns="http://www.w3.org/2000/svg" xmlns:xlink="http://www.w3.org/1999/xlink" x="0px" y="0px"
	 viewBox="0 0 479 176.2" style="enable-background:new 0 0 479 176.2;" xml:space="preserve">
<style type="text/css">
	.st0{fill:#FFFFFF;}
	.st1{font-family:'UtileDisplay-Medium';}
	.st2{font-size:36.3789px;}
	.st3{font-family:'UtileDisplay-Light';}
	.st4{font-size:17.2062px;}
	.st5{font-family:'UtileDisplay-Bold';}
	.st6{fill:#4C2E05;}
</style>
<g id="Layer_2_00000123417648432866691310000006755839947805258893_">
</g>
<g id="Layer_1_00000159431830279580535140000003500937665512769173_">
	<g id="Group_24" transform="translate(-1302 -3718.25)">
		<text transform="matrix(1 0 0 1 1424.332 3797.5996)" class="st0 st1 st2">c h a l a r o s i</text>
		<text transform="matrix(1 0 0 1 1424.0957 3847.375)" class="st0 st3 st4">(</text>
		<text transform="matrix(1 0 0 1 1428.5693 3847.375)" class="st0 st1 st4"> n. </text>
		<text transform="matrix(1 0 0 1 1448.1318 3847.375)" class="st0 st3 st4">)</text>
		<text transform="matrix(1 0 0 1 1452.6055 3847.375)" class="st0 st1 st4">  r e l a x a t i o n</text>
		<text transform="matrix(1 0 0 1 1424.2388 3820.3359)" class="st0 st3 st4">[</text>
		<text transform="matrix(1 0 0 1 1428.4199 3820.3359)" class="st0 st1 st4"> k a h - l a - r a h - s e e </text>
		<text transform="matrix(1 0 0 1 1575.4785 3820.3359)" class="st0 st3 st4">]</text>
		<text transform="matrix(1 0 0 1 1602.2383 3820.3359)" class="st0 st5 st4">G r e e k</text>
		<circle id="Ellipse_3" class="st6" cx="1590.4" cy="3814.5" r="2.9"/>
	</g>
</g>
</svg>
